<svg width="192" height="108" viewBox="0 0 192 108" fill="none" xmlns="http://www.w3.org/2000/svg">
<rect width="192" height="108" rx="10" fill="#929292"/>
<path d="M67.544 52.228V58H65.96V49.684H67.88L71.264 55.504V49.684H72.848V58H70.928L67.544 52.228ZM77.1365 58.18C76.1845 58.18 75.4405 57.896 74.9045 57.328C74.3685 56.752 74.1005 55.952 74.1005 54.928C74.1005 53.912 74.3685 53.12 74.9045 52.552C75.4405 51.976 76.1845 51.688 77.1365 51.688C78.0885 51.688 78.8325 51.976 79.3685 52.552C79.9045 53.12 80.1725 53.912 80.1725 54.928C80.1725 55.952 79.9045 56.752 79.3685 57.328C78.8325 57.896 78.0885 58.18 77.1365 58.18ZM77.1365 56.836C77.9765 56.836 78.3965 56.2 78.3965 54.928C78.3965 53.664 77.9765 53.032 77.1365 53.032C76.2965 53.032 75.8765 53.664 75.8765 54.928C75.8765 56.2 76.2965 56.836 77.1365 56.836ZM84.1981 60.472V51.868H85.6381L85.7821 52.444C86.0221 52.212 86.3101 52.028 86.6461 51.892C86.9901 51.756 87.3381 51.688 87.6901 51.688C88.4661 51.688 89.0781 51.972 89.5261 52.54C89.9821 53.108 90.2101 53.876 90.2101 54.844C90.2101 55.476 90.1061 56.04 89.8981 56.536C89.6901 57.032 89.3901 57.424 88.9981 57.712C88.6061 57.992 88.1541 58.132 87.6421 58.132C87.3141 58.132 87.0021 58.08 86.7061 57.976C86.4101 57.872 86.1581 57.728 85.9501 57.544V60.472H84.1981ZM87.1261 53.008C86.7101 53.008 86.3181 53.116 85.9501 53.332V56.488C86.3021 56.704 86.6941 56.812 87.1261 56.812C87.5741 56.812 87.9021 56.66 88.1101 56.356C88.3261 56.052 88.4341 55.572 88.4341 54.916C88.4341 54.252 88.3301 53.768 88.1221 53.464C87.9141 53.16 87.5821 53.008 87.1261 53.008ZM91.3409 58V51.868H92.7809L92.9969 52.78C93.3169 52.428 93.6169 52.18 93.8969 52.036C94.1849 51.884 94.4889 51.808 94.8089 51.808C94.9609 51.808 95.1209 51.82 95.2889 51.844V53.464C95.0649 53.416 94.8169 53.392 94.5449 53.392C94.0249 53.392 93.5409 53.484 93.0929 53.668V58H91.3409ZM97.2722 55.36C97.3042 55.888 97.4642 56.272 97.7522 56.512C98.0402 56.744 98.4922 56.86 99.1082 56.86C99.6442 56.86 100.268 56.76 100.98 56.56V57.724C100.7 57.868 100.364 57.98 99.9722 58.06C99.5882 58.14 99.1882 58.18 98.7722 58.18C97.7562 58.18 96.9802 57.904 96.4442 57.352C95.9162 56.8 95.6522 55.992 95.6522 54.928C95.6522 53.904 95.9162 53.108 96.4442 52.54C96.9722 51.972 97.7042 51.688 98.6402 51.688C99.4322 51.688 100.04 51.908 100.464 52.348C100.896 52.78 101.112 53.4 101.112 54.208C101.112 54.384 101.1 54.584 101.076 54.808C101.052 55.032 101.024 55.216 100.992 55.36H97.2722ZM98.5802 52.9C98.1882 52.9 97.8762 53.02 97.6442 53.26C97.4202 53.492 97.2922 53.832 97.2602 54.28H99.6122V54.076C99.6122 53.292 99.2682 52.9 98.5802 52.9ZM103.752 58L101.424 51.868H103.284L104.592 56.428L105.924 51.868H107.736L105.42 58H103.752ZM108.435 58V51.868H110.187V58H108.435ZM109.311 50.92C109.007 50.92 108.763 50.836 108.579 50.668C108.395 50.5 108.303 50.272 108.303 49.984C108.303 49.696 108.395 49.468 108.579 49.3C108.763 49.132 109.007 49.048 109.311 49.048C109.615 49.048 109.859 49.132 110.043 49.3C110.227 49.468 110.319 49.696 110.319 49.984C110.319 50.272 110.227 50.5 110.043 50.668C109.859 50.836 109.615 50.92 109.311 50.92ZM112.982 55.36C113.014 55.888 113.174 56.272 113.462 56.512C113.75 56.744 114.202 56.86 114.818 56.86C115.354 56.86 115.978 56.76 116.69 56.56V57.724C116.41 57.868 116.074 57.98 115.682 58.06C115.298 58.14 114.898 58.18 114.482 58.18C113.466 58.18 112.69 57.904 112.154 57.352C111.626 56.8 111.362 55.992 111.362 54.928C111.362 53.904 111.626 53.108 112.154 52.54C112.682 51.972 113.414 51.688 114.35 51.688C115.142 51.688 115.75 51.908 116.174 52.348C116.606 52.78 116.822 53.4 116.822 54.208C116.822 54.384 116.81 54.584 116.786 54.808C116.762 55.032 116.734 55.216 116.702 55.36H112.982ZM114.29 52.9C113.898 52.9 113.586 53.02 113.354 53.26C113.13 53.492 113.002 53.832 112.97 54.28H115.322V54.076C115.322 53.292 114.978 52.9 114.29 52.9ZM122.93 58L121.874 53.692L120.806 58H119.114L117.158 51.868H119.006L120.026 56.296L121.13 51.868H122.702L123.83 56.308L124.79 51.868H126.59L124.622 58H122.93Z" fill="white"/>
</svg>
